_________________________  Visit us at _________________________
  
http://p2pdl.com  ____________________________  http://p2pdl.com


Side Effect 2013 BRRip 480p x264 AAC - VYTO


Genre: Crime | Drama | Thriller
Plot: A young woman's world unravels when a drug prescribed by her psychiatrist has unexpected side
effects.  
Director: Steven Soderbergh
Stars:  Rooney Mara, Channing Tatum, Jude Law.
Rated: R for sexuality, nudity, violence and language.


Info: 
http://www.imdb.com/title/tt2053463/

Trailer:


Format                         : MPEG-4
File size                      : 306 MiB
Duration                       : 1h 46mn
Overall bit rate               : 402 Kbps
Source:                        : 720p.BluRay.x264-SPARKS(Thanks)

Video
Format                         : AVC
Bit rate                       : 358 Kbps
Width                          : 720 pixels
Height                         : 384 pixels
Display aspect ratio           : 1.85:1
Frame rate mode                : Constant
Frame rate                     : 23.976 fps
Stream size                    : 272 MiB (89%)
Writing library                : x264 core 130 r2273

Audio
Format                         : AAC
Bit rate mode                  : Variable
Bit rate                       : 40.0 Kbps
Channel(s)                     : 2 channels
Channel positions              : Front: L R
Sampling rate                  : 44.1 KHz
Stream size                    : 30.4 MiB (10%)
Language                       : English

Subtitle                       : Yes (English)

 
http://www.ultraimg.com/images/G4R1p.png 
http://www.ultraimg.com/images/KhCaS.png 
http://www.ultraimg.com/images/uXYo0.png 
http://www.ultraimg.com/images/RZQDw.png 
http://www.ultraimg.com/images/0VDZ9.png 
http://www.ultraimg.com/images/UYChc.png


----------------------------------------------------------------------------------------------------


Encoded using revolutionary 10bit encoding, which enables us to provide you more crispier 
and sharper images at small sizes, just make sure you follow our instructions without a fault.
Recommend to you to use latest version of VLC player. Install K-Lite Codec Pack or shark007 codecs
in case of any kind of problem in playback (For non-VLC Media Player users). Alternatively, install
Core AVC codecs, the fastest decoder that there is coupled with Community Center Codec Pack and play
on Windows Media Player Classic. Check sample to be sure.
Enjoy!

Encoder Notes:Looking For Early Access To Anything You Can Provide DVDScr, R5, DVDR, BluRay, Direct
Audio, Music Releases and Seedboxes. We require dedicated servers, so as to do more 
and fast releases of movies.
If You Got anything to offer please contact us at "prg@hush.com".

Face book Fan Page:   
http://www.fb.me/p2pdl